<svg xmlns="http://www.w3.org/2000/svg" style="isolation:isolate" viewBox="1.933 4.003 50 45.584" width="50" height="45.584"><path d="M17.29 4.017a4.482 4.482 0 0 0-1.717.466c-1.111.568-1.815 1.632-2.209 2.862-.399 1.229-.535 2.667-.505 4.269.034 1.899.322 4.045.789 6.287-1.785.335-3.422.764-4.872 1.277-1.937.682-3.548 1.513-4.748 2.539-1.2 1.022-2.014 2.306-2.09 3.765-.081 1.513.767 2.853 1.908 3.972 1.144 1.115 2.65 2.057 4.278 2.693.364.148.775.089 1.085-.157.305-.242.458-.632.398-1.022a1.094 1.094 0 0 0-.695-.848c-1.365-.53-2.662-1.348-3.548-2.217-.882-.869-1.289-1.743-1.255-2.311.038-.729.428-1.458 1.331-2.226.899-.771 2.289-1.522 4.057-2.141 1.344-.475 2.909-.882 4.638-1.2a61.411 61.411 0 0 0 1.84 5.966c-3.502 6.291-5.359 11.871-5.287 16.013.043 2.548.954 4.646 2.663 5.757 1.166.755 2.569 1.039 4.032.742 1.463-.297 2.993-1.094 4.786-2.378a1.08 1.08 0 0 0-.165-1.883 1.073 1.073 0 0 0-1.09.119c-1.666 1.183-2.972 1.814-3.964 2.018-.992.199-1.657.055-2.412-.441-.962-.623-1.645-1.904-1.679-3.968-.055-3.138 1.348-7.865 4.155-13.317.365.878.746 1.738 1.149 2.578 2.896 6.084 6.542 11.065 10.094 14.317 1.777 1.624 3.528 2.819 5.215 3.481 1.688.661 3.388.797 4.821.068l.059-.034.055-.034c1.217-.823 1.972-2.184 2.383-3.816.407-1.628.496-3.565.305-5.749-.377-4.362-1.874-9.709-4.46-15.301a1.082 1.082 0 0 0-1.442-.525c-.542.25-.78.894-.525 1.441 2.493 5.397 3.917 10.557 4.265 14.576.174 2.009.076 3.731-.25 5.028-.318 1.259-.836 2.056-1.438 2.493-.716.335-1.683.343-2.98-.17-1.323-.521-2.904-1.564-4.545-3.065-3.277-2.997-6.809-7.788-9.603-13.643a58.544 58.544 0 0 1-1.746-4.134 73.602 73.602 0 0 1 2.141-3.54 61.776 61.776 0 0 1 2.387-3.413c.271-.004.542-.016.818-.016a63.537 63.537 0 0 1 3.587.093c6.499.339 12.337 1.585 16.424 3.29 2.048.852 3.65 1.823 4.663 2.781 1.014.958 1.408 1.827 1.37 2.628-.043.734-.378 1.446-1.145 2.192-.772.747-1.976 1.488-3.587 2.112a1.082 1.082 0 0 0-.72.848c-.068.394.084.792.402 1.038.314.242.734.297 1.098.14 1.807-.704 3.261-1.551 4.321-2.577 1.055-1.031 1.725-2.286 1.797-3.642.081-1.607-.746-3.087-2.048-4.32-1.297-1.23-3.107-2.286-5.312-3.206-4.417-1.84-10.446-3.103-17.153-3.451-.95-.051-1.878-.063-2.807-.076 1.789-2.166 3.612-4.053 5.363-5.567 3.125-2.688 6.063-4.154 7.89-4.222h.004c.679-.026 1.188.11 1.611.381 1.374.895 2.527 3.29.653 6.69a1.085 1.085 0 0 0-.008 1.115 1.081 1.081 0 0 0 1.908-.063c2.289-4.155 1.055-7.988-1.37-9.56h-.004c-.839-.547-1.844-.772-2.87-.734h-.004c-2.777.106-5.91 1.895-9.226 4.748-2.234 1.929-4.532 4.384-6.741 7.229a57.748 57.748 0 0 0-6.003.492c-.462-2.179-.75-4.236-.78-5.974-.026-1.454.114-2.688.398-3.57.284-.877.666-1.352 1.128-1.589a2.31 2.31 0 0 1 .895-.242c1.11-.085 3.29 1.106 5.566 2.997.301.255.713.327 1.077.191.369-.131.636-.454.7-.839a1.093 1.093 0 0 0-.386-1.022c-2.4-1.988-4.702-3.672-7.118-3.489zm2.849 15.296a68.996 68.996 0 0 0-1.446 2.133c-.45.691-.857 1.373-1.272 2.056a60.723 60.723 0 0 1-1.115-3.816 54.697 54.697 0 0 1 3.833-.373zm6.83 4.223a3.256 3.256 0 1 0 0 6.513 3.256 3.256 0 0 0 0-6.513z"/></svg>