<svg xmlns="http://www.w3.org/2000/svg" style="isolation:isolate" viewBox="0 0 50 70.575" width="50" height="70.575"><path d="M24.969 70.575L4.551 64.907 0 13.87h50l-4.555 51.029-20.476 5.676z" fill="#264DE4"/><path d="M41.545 61.649l3.893-43.606H25v48.193l16.545-4.587z" fill="#2965F1"/><path d="M10.432 36.971l.56 6.26H25v-6.26H10.432zM9.305 24.302l.568 6.26H25v-6.26H9.305zM25 53.228l-.028.007-6.97-1.882-.446-4.992h-6.283l.876 9.828 12.822 3.56.029-.009v-6.512z" fill="#EBEBEB"/><path d="M11.768 0h7.581v3.171h-4.412v3.17h4.412v3.17h-7.581V0zm9.097 0h7.581v2.757h-4.411v.551h4.411v6.341h-7.581V6.754h4.411v-.552h-4.411V0zm9.098 0h7.581v2.757h-4.411v.551h4.411v6.341h-7.581V6.754h4.41v-.552h-4.41V0z"/><path d="M39.528 36.971l1.13-12.669H24.979v6.26h8.819l-.569 6.409h-8.25v6.26h7.708l-.728 8.118-6.98 1.884v6.513l12.832-3.557.094-1.057 1.471-16.479.152-1.682z" fill="#FFF"/></svg>