<svg xmlns="http://www.w3.org/2000/svg" style="isolation:isolate" viewBox="0 0 50 48.766" width="50" height="48.766"><path d="M25 0C11.195 0 0 11.193 0 25c0 11.046 7.163 20.417 17.097 23.723 1.249.231 1.708-.542 1.708-1.203 0-.596-.023-2.565-.034-4.654-6.955 1.512-8.423-2.95-8.423-2.95-1.137-2.89-2.776-3.658-2.776-3.658-2.268-1.552.171-1.52.171-1.52 2.511.177 3.833 2.576 3.833 2.576 2.229 3.822 5.848 2.717 7.275 2.079.224-1.616.872-2.719 1.587-3.343-5.553-.632-11.39-2.776-11.39-12.356 0-2.729.976-4.959 2.576-6.71-.26-.63-1.116-3.172.242-6.616 0 0 2.099-.672 6.877 2.563 1.994-.554 4.133-.832 6.257-.842 2.125.01 4.265.288 6.263.842 4.772-3.235 6.868-2.563 6.868-2.563 1.361 3.444.505 5.986.245 6.616 1.603 1.751 2.573 3.981 2.573 6.71 0 9.603-5.848 11.717-11.415 12.336.897.776 1.696 2.297 1.696 4.629 0 3.346-.029 6.038-.029 6.861 0 .665.45 1.445 1.717 1.2C42.846 45.41 50 36.042 50 25 50 11.193 38.807 0 25 0zM9.363 35.613c-.055.125-.25.162-.428.076-.181-.081-.283-.25-.224-.375.053-.128.249-.164.43-.078.182.082.285.253.222.377zm1.23 1.098c-.119.11-.352.059-.51-.116-.164-.174-.194-.407-.074-.519.123-.111.349-.059.513.115.164.176.196.408.071.52zm.844 1.404c-.153.106-.404.006-.559-.216-.153-.222-.153-.489.004-.596.155-.107.402-.011.558.21.153.226.153.493-.003.602zm1.427 1.625c-.137.152-.429.111-.643-.095-.219-.202-.279-.488-.142-.639.139-.151.432-.109.648.096.216.201.283.489.137.638zm1.844.549c-.061.196-.342.285-.625.202-.283-.086-.468-.315-.411-.513.059-.197.341-.29.626-.201.283.086.468.313.41.512zm2.098.233c.007.206-.233.377-.53.381-.299.007-.541-.16-.544-.363 0-.208.234-.378.533-.383.298-.005.541.16.541.365zm2.062-.079c.035.201-.171.408-.467.463-.29.053-.558-.071-.595-.271-.036-.206.174-.412.464-.466.295-.051.56.07.598.274z" fill="#161614"/></svg>