<svg xmlns="http://www.w3.org/2000/svg" style="isolation:isolate" viewBox="0 0 50 70.575" width="50" height="70.575"><path d="M50 13.869l-4.555 51.03-20.476 5.676L4.55 64.907 0 13.869h50z" fill="#E44D26"/><path d="M25 66.236l16.545-4.587 3.893-43.607H25v48.194z" fill="#F16529"/><path d="M16.145 30.562H25v-6.26H9.304l.15 1.68 1.538 17.249H25v-6.259h-8.283l-.572-6.41zm1.411 15.799h-6.284l.877 9.828 12.822 3.56.029-.008v-6.513l-.028.007-6.971-1.882-.445-4.992z" fill="#EBEBEB"/><path d="M4.652 0h3.181v3.143h2.91V0h3.181v9.517h-3.181V6.33h-2.91v3.187H4.652V0zm13.455 3.156h-2.8V0h8.783v3.156h-2.801v6.361h-3.181V3.156h-.001zM25.484 0h3.317l2.04 3.344L32.879 0h3.319v9.517H33.03V4.8l-2.189 3.384h-.055L28.597 4.8v4.717h-3.113V0zm12.297 0h3.182v6.371h4.473v3.146H37.78V0h.001z"/><path d="M24.979 43.231h7.707l-.726 8.118-6.982 1.884v6.513l12.833-3.557.094-1.058 1.471-16.479.152-1.68H24.979v6.259zm0-12.685v.016h15.119l.125-1.407.286-3.173.15-1.68h-15.68v6.245-.001z" fill="#FFF"/></svg>