<svg xmlns="http://www.w3.org/2000/svg" style="isolation:isolate" viewBox="0 0 50 50" width="50" height="50"><path d="M36.691 9.524H39.5c.539 0 .976.437.976.976v.428a.977.977 0 0 1-.976.977h-2.809a.978.978 0 0 1-.977-.977V10.5c0-.539.438-.976.977-.976z" fill="#56b3b4"/><path d="M.977 47.619h12.332c.539 0 .977.438.977.977v.427a.978.978 0 0 1-.977.977H.977A.978.978 0 0 1 0 49.023v-.427c0-.539.438-.977.977-.977z" fill="#ea5e5e"/><path d="M29.548 28.571h7.571c.539 0 .976.438.976.977v.428a.976.976 0 0 1-.976.976h-7.571a.977.977 0 0 1-.977-.976v-.428c0-.539.438-.977.977-.977z" fill="#bf85bf"/><path d="M15.262 28.571h9.952c.539 0 .976.438.976.977v.428a.976.976 0 0 1-.976.976h-9.952a.976.976 0 0 1-.976-.976v-.428c0-.539.437-.977.976-.977z" fill="#ea5e5e"/><path d="M.977 28.571h9.951c.539 0 .977.438.977.977v.428a.977.977 0 0 1-.977.976H.977A.977.977 0 0 1 0 29.976v-.428c0-.539.438-.977.977-.977z" fill="#56b3b4"/><path d="M.977 38.095h12.332c.539 0 .977.438.977.977v.428a.977.977 0 0 1-.977.976H.977A.977.977 0 0 1 0 39.5v-.428c0-.539.438-.977.977-.977zM.977 19.048h12.332c.539 0 .977.437.977.976v.428a.978.978 0 0 1-.977.977H.977A.978.978 0 0 1 0 20.452v-.428c0-.539.438-.976.977-.976z" fill="#bf85bf"/><path d="M12.881 4.762h24.238c.539 0 .976.437.976.976v.428a.977.977 0 0 1-.976.977H12.881a.977.977 0 0 1-.976-.977v-.428c0-.539.437-.976.976-.976z" fill="#f7ba3e"/><path d="M.977 4.762h7.57c.539 0 .977.437.977.976v.428a.978.978 0 0 1-.977.977H.977A.978.978 0 0 1 0 6.166v-.428c0-.539.438-.976.977-.976z" fill="#ea5e5e"/><path d="M10.5 42.857h2.809c.539 0 .977.438.977.977v.428a.977.977 0 0 1-.977.976H10.5a.976.976 0 0 1-.976-.976v-.428c0-.539.437-.977.976-.977z" fill="#f7ba3e"/><path d="M10.5 14.286h2.809c.539 0 .977.437.977.976v.428a.978.978 0 0 1-.977.977H10.5a.977.977 0 0 1-.976-.977v-.428c0-.539.437-.976.976-.976zM.977 42.857h5.189c.539 0 .977.438.977.977v.428a.977.977 0 0 1-.977.976H.977A.977.977 0 0 1 0 44.262v-.428c0-.539.438-.977.977-.977z" fill="#56b3b4"/><path d="M.977 14.286h5.189c.539 0 .977.437.977.976v.428a.978.978 0 0 1-.977.977H.977A.978.978 0 0 1 0 15.69v-.428c0-.539.438-.976.977-.976z" fill="#f7ba3e"/><path d="M31.929 42.857h2.809c.539 0 .976.438.976.977v.428a.976.976 0 0 1-.976.976h-2.809a.977.977 0 0 1-.977-.976v-.428c0-.539.438-.977.977-.977zM17.643 42.857h9.952c.539 0 .976.438.976.977v.428a.976.976 0 0 1-.976.976h-9.952a.976.976 0 0 1-.976-.976v-.428c0-.539.437-.977.976-.977zM39.072 42.857h9.951c.539 0 .977.438.977.977v.428a.977.977 0 0 1-.977.976h-9.951a.977.977 0 0 1-.977-.976v-.428c0-.539.438-.977.977-.977z" fill="#d0d4d8" style="stroke:none;fill:#D0D4D8;stroke-miterlimit:10" opacity=".5"/><path d="M20.024 23.81H39.5c.539 0 .976.437.976.976v.428a.976.976 0 0 1-.976.976H20.024a.976.976 0 0 1-.976-.976v-.428c0-.539.437-.976.976-.976z" fill="#56b3b4"/><path d="M8.119 23.81h7.571c.539 0 .977.437.977.976v.428a.977.977 0 0 1-.977.976H8.119a.976.976 0 0 1-.976-.976v-.428c0-.539.437-.976.976-.976z" fill="#f7ba3e"/><path d="M.977 23.81h2.808c.539 0 .977.437.977.976v.428a.977.977 0 0 1-.977.976H.977A.977.977 0 0 1 0 25.214v-.428c0-.539.438-.976.977-.976z" fill="#ea5e5e"/><path d="M22.405 9.524h9.952c.539 0 .976.437.976.976v.428a.977.977 0 0 1-.976.977h-9.952a.977.977 0 0 1-.976-.977V10.5c0-.539.437-.976.976-.976z" fill="#bf85bf"/><path d="M.977 9.524h17.094c.539 0 .977.437.977.976v.428a.978.978 0 0 1-.977.977H.977A.978.978 0 0 1 0 10.928V10.5c0-.539.438-.976.977-.976z" fill="#56b3b4"/><path d="M8.119 33.333h21.857c.539 0 .976.438.976.977v.428a.976.976 0 0 1-.976.976H8.119a.976.976 0 0 1-.976-.976v-.428c0-.539.437-.977.976-.977z" fill="#f7ba3e"/><path d="M.977 33.333h2.808c.539 0 .977.438.977.977v.428a.977.977 0 0 1-.977.976H.977A.977.977 0 0 1 0 34.738v-.428c0-.539.438-.977.977-.977z" fill="#bf85bf"/><path d="M29.548 14.286h12.333c.539 0 .976.437.976.976v.428a.977.977 0 0 1-.976.977H29.548a.978.978 0 0 1-.977-.977v-.428c0-.539.438-.976.977-.976z" fill="#ea5e5e"/><path d="M29.548 19.048h12.333c.539 0 .976.437.976.976v.428a.977.977 0 0 1-.976.977H29.548a.978.978 0 0 1-.977-.977v-.428c0-.539.438-.976.977-.976z" fill="#f7ba3e"/><path d="M.977 0h28.999c.539 0 .976.438.976.977v.427a.977.977 0 0 1-.976.977H.977A.978.978 0 0 1 0 1.404V.977C0 .438.438 0 .977 0z" fill="#56b3b4"/><path d="M34.31 0h14.713c.539 0 .977.438.977.977v.427a.978.978 0 0 1-.977.977H34.31a.978.978 0 0 1-.977-.977V.977c0-.539.438-.977.977-.977zM34.31 33.333h5.19c.539 0 .976.438.976.977v.428a.976.976 0 0 1-.976.976h-5.19a.977.977 0 0 1-.977-.976v-.428c0-.539.438-.977.977-.977zM43.834 33.333h5.189c.539 0 .977.438.977.977v.428a.977.977 0 0 1-.977.976h-5.189a.977.977 0 0 1-.977-.976v-.428c0-.539.438-.977.977-.977zM41.453 28.571h7.57c.539 0 .977.438.977.977v.428a.977.977 0 0 1-.977.976h-7.57a.977.977 0 0 1-.977-.976v-.428c0-.539.438-.977.977-.977zM41.453 4.762h7.57c.539 0 .977.437.977.976v.428a.978.978 0 0 1-.977.977h-7.57a.978.978 0 0 1-.977-.977v-.428c0-.539.438-.976.977-.976zM43.834 23.81h5.189c.539 0 .977.437.977.976v.428a.977.977 0 0 1-.977.976h-5.189a.977.977 0 0 1-.977-.976v-.428c0-.539.438-.976.977-.976zM43.834 9.524h5.189c.539 0 .977.437.977.976v.428a.978.978 0 0 1-.977.977h-5.189a.978.978 0 0 1-.977-.977V10.5c0-.539.438-.976.977-.976zM46.215 14.286h2.808c.539 0 .977.437.977.976v.428a.978.978 0 0 1-.977.977h-2.808a.978.978 0 0 1-.977-.977v-.428c0-.539.438-.976.977-.976zM46.215 19.048h2.808c.539 0 .977.437.977.976v.428a.978.978 0 0 1-.977.977h-2.808a.978.978 0 0 1-.977-.977v-.428c0-.539.438-.976.977-.976zM27.167 38.095h21.856c.539 0 .977.438.977.977v.428a.977.977 0 0 1-.977.976H27.167a.977.977 0 0 1-.977-.976v-.428c0-.539.438-.977.977-.977zM17.643 38.095h5.19c.539 0 .977.438.977.977v.428a.977.977 0 0 1-.977.976h-5.19a.976.976 0 0 1-.976-.976v-.428c0-.539.437-.977.976-.977zM36.691 47.619h12.332c.539 0 .977.438.977.977v.427a.978.978 0 0 1-.977.977H36.691a.978.978 0 0 1-.977-.977v-.427c0-.539.438-.977.977-.977zM17.643 47.619h14.714c.539 0 .976.438.976.977v.427a.977.977 0 0 1-.976.977H17.643a.977.977 0 0 1-.976-.977v-.427c0-.539.437-.977.976-.977zM17.643 14.286h7.571c.539 0 .976.437.976.976v.428a.977.977 0 0 1-.976.977h-7.571a.977.977 0 0 1-.976-.977v-.428c0-.539.437-.976.976-.976zM17.643 19.048h7.571c.539 0 .976.437.976.976v.428a.977.977 0 0 1-.976.977h-7.571a.977.977 0 0 1-.976-.977v-.428c0-.539.437-.976.976-.976z" fill="#d0d4d8" style="stroke:none;fill:#D0D4D8;stroke-miterlimit:10" opacity=".5"/></svg>