<svg xmlns="http://www.w3.org/2000/svg" style="isolation:isolate" viewBox="0 0 50 19.472" width="50" height="19.472"><path d="M34.291 1.728l-.011-.107-.174.015.011.107.174-.015zm1.167 2.807l.004.059.121-.011a.505.505 0 0 1 .037-.17l-.011-.107c-.051.003-.103.081-.151.229zm-4.553 3.534c-.008-.1-.318-.488-.931-1.171-.011-.125.2-.314.632-.561l1.233-1.075c.277-.351.439-.919.487-1.71l-.014-.181c-.048-.546-.443-.985-1.193-1.321-.443-.3-1.241-.466-2.393-.495-.953.081-2.197.421-3.73 1.023a15.54 15.54 0 0 1-1.44.908l.007.092a.341.341 0 0 0 .145-.062c.062-.008.099.022.103.081l.092-.048.045-.004.003.041c.004.048-.328.31-1.001.779l.052.096-.044.004-.111-.041c.004.033-.044.055-.137.063l.004.04.107.133a.399.399 0 0 1-.155-.037c-.155.015-.306.096-.458.251l.063-.273c.225-.971.38-1.831.462-2.577l-.011-.048c-.155-.1-.307-.24-.447-.418a1.802 1.802 0 0 0 0-.195l-.011-.041-.045.011c-.487.731-1.425 1.979-2.817 3.745-1.06 1.255-1.607 1.953-1.64 2.093-.432.447-.639.717-.616.809-.115.074-.163.148-.145.229-.033.007-.055-.004-.062-.037a1.26 1.26 0 0 1-.824.576l-.384.089c-.052.011-.077.048-.074.111l.011.048.144-.034.012.041-.325.126-.577.132-.302.019c-.045.044.24-.004.129.022l-.377.089c-.229.051-.354.033-.376-.059l-.045.011c.008.04.011.07.004.096l-.022-.093-.303.071c-.022-.141-.432-.65-1.226-1.529-.015-.17.266-.418.838-.739l1.618-1.422c.362-.465.576-1.211.646-2.237l-.022-.24c-.063-.724-.587-1.308-1.573-1.758-.584-.395-1.633-.606-3.147-.639-1.255.107-2.895.554-4.911 1.333-.554.403-1.185.801-1.894 1.197l.011.125a.494.494 0 0 0 .188-.074c.081-.007.126.03.133.104l.126-.071.062-.003.004.059c.004.059-.436.402-1.326 1.03l.07.111-.062.004-.137-.048c.004.037-.059.062-.188.073l.007.067.148.162a.544.544 0 0 1-.2-.04c-.288.026-.568.232-.845.624l.07.111c.24-.222.38-.333.421-.336l.015.181a.59.59 0 0 0-.189.073l.152.229a4.96 4.96 0 0 1 .964-.808c.173.044.265.099.269.158l.133-.011c.953-.705 1.894-1.215 2.829-1.528l.011.125c-.174.259-.292.392-.355.399a.408.408 0 0 0 .093.233c.014.158-.41 1.229-1.271 3.209-1.953 4.601-3.593 8.005-4.926 10.206.004.045.03.104.078.178.328-.078.535-.159.624-.237l.07-.007.011.126.122-.012.125-.07c.004.037.045.056.13.048l.011.126c.011.122-.059.306-.207.561-.133.152-.277.469-.428.953l.003.059.122-.011c.532-.595.934-1.178 1.211-1.747 1.551-.454 2.733-.901 3.553-1.34.823-.07 1.451-.288 1.88-.647l-.008-.066-.31.092-.07.008-.008-.067c.606-.092 1.023-.225 1.256-.41 1.178-.908 2.068-1.551 2.67-1.931 1.237-.908 2.042-1.795 2.407-2.655l.207-.048c.174-.007.27-.011.296-.019-.008-.033.007-.051.04-.059.277-.029.144.019.322-.022l.465-.107c-.03.007-.041.022-.033.052l.07-.045a.102.102 0 0 1-.037-.007l.077-.018-.037.022a.479.479 0 0 0 .17-.011l.034.136-2.116 3.365-.469.587-.229.768.044-.011.229-.096-.074.299.022.088.063.078c-.03.007-.041.026-.033.059l.011.048.096-.022c.14-.122.199-.233.177-.332.151.025.251.036.303.022l.011.048c-.092.022-.14.096-.148.221l.011.048.052-.011c.768-.838 2.651-3.707 4.162-5.653-.048-.211.738-.503 2.363-.879l.052-.011c.059.254-.067.871-.377 1.85-.199.591-.295.916-.28.967-.259.787-.381 1.211-.366 1.278l-.576 1.887a17.262 17.262 0 0 0-.857 3.054.359.359 0 0 1 .159.015l.081-.071c.008.034.03.045.063.037l-.033-.136.251-.008c.074-.018.136-.111.188-.28-.011-.255.041-.392.155-.421.155-.606.251-.909.285-.92.144-.602.251-.945.321-1.03.218-.783.377-1.185.48-1.211l.022.096-.159.41c-.277 1.229-.557 2.2-.842 2.913l.082.355.051-.011c.687-1.478 1.677-4.402 2.966-8.774.037-.384.221-.684.55-.894l-.074-.078-.011-.04c.148-.033.251-.093.31-.174-.007-.033-.137-.081-.388-.148l.643-2.754c.14-.126.221-.192.247-.192l.011.14a.344.344 0 0 0-.144.063l.122.173c.222-.24.462-.446.724-.62.133.037.199.081.207.126l.096-.008c.731-.535 1.447-.919 2.153-1.152l.007.092c-.129.196-.218.296-.266.299a.417.417 0 0 0 .059.178c.011.122-.306.934-.956 2.441-1.485 3.489-2.729 6.07-3.741 7.747a.346.346 0 0 0 .067.137c.247-.059.406-.122.469-.181l.044-.004.007.092.104-.007.092-.048c.004.026.037.037.1.033l.007.1c.007.088-.044.229-.159.421-.107.114-.218.354-.336.72l.004.048.096-.007c.402-.451.709-.894.919-1.33 1.178-.347 2.076-.683 2.696-1.015.632-.056 1.108-.218 1.433-.492l-.004-.047-.24.07-.051.003-.004-.048c.458-.066.779-.17.953-.306.893-.687 1.569-1.178 2.027-1.466 1.425-1.038 2.09-2.035 2.009-2.991zm-.244.062l.033.373c-.044.093-.092.141-.136.144l-.056-.635c.104.037.155.074.159.118zM2.699 5.126l-.062.003-.011-.114.254-.022.004.059a.483.483 0 0 0-.185.074zM1.455 17.574a.786.786 0 0 0-.395-.081l-.015-.181c-.007-.07.033-.119.122-.137.081-.007.129.052.137.17.214-.262.332-.395.354-.399l.137.055c-.045.37-.159.558-.34.573zM14.753 3.663c-.063.008-.189-.188-.37-.576l-.011-.114c.118-.011.24.181.37.576l.011.114zm-.178-1.377l-.051.122-1.806-.754c1.204.041 1.824.251 1.857.632zM6.95 8.833l-.255.022-.011-.114.255-.022.011.114zM6.743 4.9l.063-.003.015.181c-.06.003-.137.092-.233.262l-.011-.126c.114-.136.173-.24.166-.314zm-.535 1.263l.022.24-.063.004-.022-.24.063-.004zm-.281.451l.122-.011c-.011.199-.067.306-.166.314l-.063.003c.077-.133.114-.236.107-.306zm-.211.628l.071-.008.003.059-.114.192-.122.011-.004-.059c.122-.011.177-.074.166-.195zm-.206.565l-.037.302-.063.004-.026-.299.126-.007zm-2.072 5.889c-.081.414-.17.625-.262.632l-.004-.059c-.022-.203.067-.395.266-.573zm-.38.824l.003.059c.008.081-.029.129-.111.133l-.003-.059c-.008-.07.029-.115.111-.133zm-.111 1.71l.192-.019.007.067a.472.472 0 0 0-.188.074l-.122.011c-.007-.063.033-.111.111-.133zm5.465-1.688c-1.078.532-1.713.894-1.902 1.082-1.167.406-1.746.657-1.735.757-1.038.41-1.721.713-2.05.901-.077.008-.188-.022-.336-.089-.018-.21.078-.38.281-.516.181-.015.354.011.521.081.192-.1.528-.211 1.004-.329l-.011-.125-.384.033c.048-.067.417-.24 1.111-.521l.192-.018.004.059c-.329.029-.51.125-.55.299.007.077.052.111.133.103.247-.155.369-.247.365-.273.469-.089 1.766-.768 3.889-2.035l.011.115c.004.055-.177.21-.543.476zm-3.257 1.071a1.26 1.26 0 0 0 .798-.369c.088-.008.136.026.14.103-.151.015-.443.14-.868.384l-.062.004-.008-.122zm5.255-4.036l-1.629 1.289c-1.211.794-1.861 1.192-1.953 1.2-1.928 1.06-3.128 1.61-3.593 1.65l-.07.008c.059-.218.915-1.972 2.577-5.274.731-.062 1.884-.402 3.453-1.022l.384-.034c.794-.07 1.388.085 1.78.455l.022.24c-.295.849-.62 1.344-.971 1.488zM7.227 9.786l.262-.022.004.059-.263.022-.003-.059zm3.681-.624l.192-.019c.178.085.27.159.277.226l.004.059c-.17.014-.329-.074-.473-.266zm.521-2.966c-.17.204-.635.551-1.396 1.038-.251.022-1.185.384-2.803 1.093a.503.503 0 0 0-.258-.044l-.011-.115c-.019-.232.085-.524.314-.878.125-.665.262-1.046.413-1.138L9.036 3.12c-.015-.188.273-.332.864-.432l.192-.018.015.173c.58-.088.942-.14 1.082-.151 1.071-.092 1.629.126 1.673.646l.122-.011-.026-.306.133-.011c.314.173.484.384.506.631.015.17-.078.38-.274.632-.081.007-.129-.052-.136-.17l-.133.011-.03.369c-.542.812-.938 1.23-1.181 1.252-.222.306-.359.458-.414.461zm.827 2.124c-.11-.074-.199-.107-.266-.104l-.014-.181.121-.011.27.159c.011.085-.026.129-.111.137zm.857 1.015c.118.048.188.1.203.148l-.059.015.004.003a.123.123 0 0 0-.037.008l-.089.07-.022-.244zm.081.51l-.011-.048.155-.037.011.048-.155.037zm.373.417c.159-.026.237-.037.532-.103l.011.048-.561.129c.007-.026.014-.052.018-.074zm.547.233c-.237.022-.185-.008-.562.077l-.011-.048.469-.151.226-.052.022.089c-.1.022-.026.022-.144.085zm.498-.118c-.055.014-.099-.011-.125-.074l.144-.033c.062-.015.103.011.118.073l-.137.034zm1.352-1.455l-.011-.048.232-.056.023.089-.244.015zm1.444 8.855a.389.389 0 0 0 .011-.148l.052-.011c.062-.015.099.008.114.067l.011.048-.188.044zm1.012-8.475l-.104-.018a2.973 2.973 0 0 1-.421.14l-.096.022c-.055.015-.1-.007-.122-.066l.676-.155.222-.104.073.085a.483.483 0 0 0-.228.096zm.52-.166l-.011-.048a.29.29 0 0 0 .126-.081l.48-.111.011.048a3.682 3.682 0 0 0-.606.192zm.074-.971a.401.401 0 0 0-.133.081c-.007-.033-.074-.033-.199-.004-.022-.092.332-.221 1.067-.391l.103-.022.022.088c-.517.152-.805.237-.86.248zm1.293-1.396c-.052.587-.259.919-.625 1.004l-.011-.048-.325.126-.144.033a.351.351 0 0 1-.199-.004l-.03-.129c-.011-.048.458-.698 1.411-1.946l.111.019c.04.169-.022.483-.188.945zm2.285-1.957l-.044.003-.007-.092.192-.018.003.048a.576.576 0 0 0-.144.059zm-.941 9.457a.597.597 0 0 0-.296-.067l-.011-.14c-.004-.048.026-.081.089-.1.063-.007.1.037.107.133.159-.203.247-.306.266-.306l.099.04c-.036.281-.121.429-.254.44zM31.747 3.708c-.048.003-.141-.145-.285-.444l-.007-.092c.092-.007.188.137.284.432l.008.104zm-.133-1.057l-.045.096-1.366-.572c.912.03 1.385.188 1.411.476zM25.82 7.626l-.192.018-.008-.092.192-.015.008.089zm-.159-2.988l.052-.004.011.141c-.048.003-.107.07-.178.199l-.007-.092c.085-.107.126-.189.122-.244zm-.403.96l.015.181-.051.004-.015-.181.051-.004zm-.217.344l.096-.008c-.011.155-.052.237-.122.244l-.052.004a.52.52 0 0 0 .078-.24zm-.155.472l.044-.003.003.048-.084.147-.096.008-.004-.048c.1-.008.144-.059.137-.152zm-.156.429l-.033.236-.044.004-.019-.233.096-.007zm-1.576 4.479c-.063.31-.13.469-.2.476l-.004-.04c-.011-.155.056-.303.204-.436zm-.292.624l.004.041c.007.066-.023.103-.089.107l-.004-.048c-.003-.048.026-.081.089-.1zm-.081 1.3l.147-.011.004.048a.436.436 0 0 0-.144.055l-.096.008c-.004-.052.026-.085.089-.1zm4.147-1.281c-.813.402-1.297.675-1.448.816-.886.31-1.326.502-1.318.579-.787.314-1.304.54-1.548.684a.58.58 0 0 1-.254-.071c-.015-.158.059-.288.214-.384a.843.843 0 0 1 .395.059c.148-.073.402-.155.764-.247l-.007-.092-.303.022c.037-.052.321-.185.85-.399l.147-.011.004.041c-.251.022-.391.096-.421.229.004.059.041.088.103.081.185-.122.274-.192.274-.214.354-.063 1.336-.58 2.95-1.548l.008.093c.003.04-.133.158-.41.362zm-2.474.812a.996.996 0 0 0 .613-.277c.062-.007.099.022.103.081-.111.011-.329.104-.657.281l-.052.004-.007-.089zm3.995-3.069l-1.23.99c-.919.602-1.418.905-1.495.912-1.463.805-2.371 1.222-2.729 1.252l-.052.004c.044-.167.698-1.5 1.961-4.003.55-.048 1.422-.311 2.618-.783l.299-.026c.602-.052 1.053.066 1.348.351l.015.181c-.225.635-.469 1.008-.735 1.122zm-2.415-1.359l.192-.018.004.048-.192.018-.004-.048zm2.795-.476l.148-.011c.137.066.207.126.211.173l.003.041c-.129.011-.251-.055-.362-.203zm.388-2.249c-.129.155-.48.421-1.052.79-.192.019-.901.292-2.127.824a.483.483 0 0 0-.196-.026l-.007-.092c-.015-.178.062-.399.232-.669.096-.509.203-.794.314-.86l1.03-2.304c-.011-.137.207-.248.65-.333l.148-.011.011.14c.436-.07.709-.11.82-.121.812-.071 1.237.092 1.27.491l.096-.008-.018-.221.096-.008c.236.13.362.285.376.469.011.133-.055.296-.195.484-.063.007-.1-.037-.107-.133l-.096.008-.03.277c-.41.624-.709.945-.897.96-.166.225-.27.339-.318.343zm.432 1.536l-.011-.14.096-.007.207.125c.004.059-.026.092-.089.1-.088-.056-.155-.081-.203-.078zm-17.19 8.97l-.096.022-.081.07c.015.059.052.082.115.067.062-.015.088-.052.074-.111l-.012-.048zm-.365-.727l.011.047c.063-.014.088-.051.074-.11l-.011-.048c-.059.015-.085.051-.074.111zm2.599-6.186l.111-.026-.022-.096-.111.026.022.096zm33.509 2.814c-1.123.251-1.263.207-1.5.225l.008.093.103-.008.056-.003-.015-.012.122-.048c1.111-.121 1.24-.077 1.229-.203l-.003-.044zm-6.045.801l.007.093h.015l-.008-.093h-.014zm-.695-2.433l-.099-.033c-.082.217-.122.347-.119.384l.004.04c.078-.003.148-.136.214-.391zm6.969 1.614l.007.092.162.029-.007-.092-.162-.029zm-7.641.934l-.251-.03-.044.096.004.048 1.495-.125-.007-.093-1.197.104zm-.679-3.276l-.004-.048-.052.004-.092.059.052.089c.07-.008.103-.041.096-.104zm9.029 1.662l.07-.007c.04-.004.059-.037.055-.096l-.04-.089c-.255.022-.373.033-.58.148l-.004-.048-.306.029c-.008-.092-.034-.14-.074-.136l-.159.014c-.185.015-.273.008-.366.078-.003-.033-.014-.048-.033-.048l-.177.015-.104.059c-.003-.033-.014-.048-.033-.048l-.063.055-.003-.048-.248-.018-.059.003.008.093.125.033.118-.007a.212.212 0 0 0 .137.029l.103-.052.004.041c-.58.144-.576.118-.975.185-.044-.03-.077-.045-.1-.041l-.007.007c-.044-.003-.07-.033-.074-.081l.207-.026c.015 0 .026.015.14.037.167-.081.174-.114.263-.122l-.008-.092c-.569.111-.34.037-1.052.1l-.034.004-.007-.093c.916-.111.609-.048.923-.136.004.033.015.048.034.048a.209.209 0 0 1 .125-.063l.063-.004c.321-.026.428.037 1.063-.14l.004.04.103-.051.096-.008c-.007-.092.133-.107.181-.11l-.007-.1c-1.115.225-1.407.162-1.717.251l-.004-.041c-.291.052-.303.03-.376.034-.023.003-.056.022-.093.059-.003-.034-.015-.048-.037-.048-.011 0-.014.003-.018.003l-.946.155c-.003-.025-.014-.04-.036-.037-.492.104-.359.122-1.016.181a.318.318 0 0 0-.122.052c-.004-.026-.018-.04-.051-.037l-.403.033-.27.067c-.003-.026-.018-.041-.051-.037a2.188 2.188 0 0 1-.392.074h-.007c-.067.007.033-.019-.019-.041l-.081.048c-.118.011-.055-.007-.461-.003-.713.088-.636.099-.713.103l-.266-.019c.004.026-.011.045-.041.045-.302-.041-.458-.089-.461-.144.04-.288.111-.436.21-.443l.052-.004-.044.096.051-.004c.096-.051.141-.099.137-.144l-.007-.099-.096.007-.008-.092a.335.335 0 0 1 .03-.185l.218-.351.007.092.103-.007-.007-.092-.059-.085c.078-.067.137-.104.185-.107l-.004-.048-.14.011-.012-.14c.281-.584.414-.924.407-1.02l.099.041c.063-.004.093-.041.089-.107l-.096.007-.004-.04a.36.36 0 0 1 .037-.196c.152-.159.222-.318.207-.484.03-.004.044.011.048.044.129-.073.229-.269.303-.594.229-.414.554-1.241.978-2.478.813-2.186.78-2.419.894-2.936l-.096.008a.332.332 0 0 1-.037.188.371.371 0 0 0-.155-.037l-.004-.04c-.014-.189.063-.414.24-.68l.045-.004.081.318.096-.007c-.004-.023.022-.148.074-.381-.004-.048-.041-.077-.115-.081l-.092.059a5.336 5.336 0 0 1 .007-.517l-.048.004c-.081-.082-.121-.148-.125-.203l-.528.051a.49.49 0 0 0-.059-.162c-.004-.048.114-.096.358-.144l.107.04.1-.059c.003.034.022.048.059.045l.099-.059c.004.033.023.048.06.044l.048-.004-.008-.107a5.536 5.536 0 0 1-.58-.004l-.099.067-.004-.059c-2.478.203-3.885.317-4.221.351-.044.003-.218 0-.524-.008.004.041-.033.063-.107.07l-.107-.048-.362.093a2.473 2.473 0 0 1-.429-.019.364.364 0 0 1-.203.078c-.044.003.528-.03 1.06-.067a.484.484 0 0 1-.258.082.36.36 0 0 1-.211-.037c-.081.037-.343.096-.783.184l-.107-.04-1.728.266a.42.42 0 0 0-.233-.037c-.092.007-.247.04-.461.099l-.835.347.063.104a.46.46 0 0 0 .17-.067l.295.026-.037.277c-.273.122-.432.303-.476.532-.41.181-.613.31-.613.388l.004.048.062-.004.111-.059.129.155.019.214c.007.067-.683 1.518-2.064 4.354-1.197 2.733-1.825 4.228-1.884 4.498-.41.114-.646.28-.716.502.007.07.129.118.365.137l.012.107-.108.177.019.214c.011.111.31.196.897.255-.003-.037.015-.059.056-.063.011.133-.026.392-.111.776l.063-.004c.243-.332.358-.561.347-.687l.052-.004c.059-.003.121.063.195.207-.074.03-.332.617-.775 1.765l.063.104.062-.004c.543-1.374.883-2.134 1.023-2.278.713-.063 1.946-.189 3.697-.377l.11-.067c.004.037.026.056.067.052l.114-.011.111-.066c.004.036.026.055.067.051l1.325-.114c.351-.03.517-.137.503-.318-.004-.048.203-.103.62-.162.041-.004.1.007.181.033-.004-.033.207-.066.628-.103.011-.222.081-.34.206-.351l-.011-.107a1.81 1.81 0 0 0-.406.092c-.277-.015-.454-.037-.528-.063a.487.487 0 0 1-.17.067l-.923.029-.111.059c-.003-.033-.026-.048-.066-.044l-.052.004-.118.059c-.004-.033-.1-.059-.292-.085l-.118.07-.229.018-.004-.059c1.189-.129 1.777-.291 1.762-.483.077-.008.118.029.125.107l.348-.089-.012-.107-2.847.078c.004.037-.015.059-.055.062l-.347-.029a.418.418 0 0 0-.222.077l-.129-.048c-.358.03-.624.074-.801.13a4.975 4.975 0 0 0-.813.011l-.639.055-.295-.033c-.015-.188.351-1.115 1.104-2.777.218-.561.417-.912.609-1.045.041-.004.1.011.181.044l.455-.155.232.037c.392-.033.846-.144 1.367-.336a.632.632 0 0 1 .295.026l.347-.082 1.034-.088a6.858 6.858 0 0 0 1.433-.292l-.011-.107c-.192.019-.292-.015-.299-.092-.011-.144-.152-.203-.421-.181l-.011-.107.284-.082.746-.062-.011-.107c-.03.003-.181 0-.462-.011l-.011-.115.288-.026c.078-.007.111-.044.104-.118-.388.011-.584-.007-.588-.059-2.703.133-4.058.159-4.065.074a.441.441 0 0 0-.17.074l-.07-.111c.716-1.522 1.137-2.29 1.259-2.301.004.059-.026.155-.092.285l.003.048.115-.011c.284-.68.524-1.031.724-1.045.849-.074-.119-.13 1.698-.414.074.033.126.048.163.044.712-.144 1.706-.295 2.98-.45l-.008-.107-.679.062-.008-.107a.37.37 0 0 0 .204-.077l.003.059a.406.406 0 0 0 .155-.074.49.49 0 0 1 .27.033c.236-.063.428-.099.569-.114l.424-.041c.104-.066.152-.125.148-.181l-.004-.048a1.337 1.337 0 0 1-.373-.022c-.003-.059.026-.1.096-.118l.791-.074.362-.092c.003.04.022.055.051.055a.392.392 0 0 0 .155-.074c.019.004.041.004.059.008a2.844 2.844 0 0 0-.158.432l-.104.007a.447.447 0 0 0-.059-.188l-.052.003c-.96 2.674-1.388 3.918-2.274 5.972-.163.524-.299.816-.418.878.004.06.041.089.104.082a1.29 1.29 0 0 1-.181.764c-.41 1.182-.683 1.828-.824 1.946l.093.558c.003.059-.026.092-.089.1l-.096.007c-.015-.155-.07-.229-.17-.218l-.052.004a2.21 2.21 0 0 0-.284.683l.096-.008c.129-.084.188-.184.177-.299l.192-.018.111.041c-.088.14-.129.251-.122.336l.052.088-.126.296.004.048a.597.597 0 0 1 .362.103.644.644 0 0 0 .292-.118c.111-.011.524-.015 1.237-.015l.358-.122c.436-.004.506.008.883-.026l.155-.014.081-.056.004.048c.395-.033.421-.007.731.03l.004.048-.218.018.007.093a.318.318 0 0 0 .174-.067c.055-.004.088.026.092.092a1.33 1.33 0 0 0-.299.067l-.096-.033c-.152.04-.118.051-.222.059l-.151-.03c.004.026-.011.044-.037.044.004.06.037.089.092.085l.155-.014.809-.071.307-.066c.003.026.014.041.04.037l.148-.055.277-.023c.214-.018.21-.033.676-.107-.004-.029.007-.04.029-.044l.004.041c.757-.13.805-.137.927-.178l.011.022c.188-.044.081-.033.133-.07.003.034.014.048.033.048l.133-.011-.007-.099-.27-.004-.004-.007c-.011.003-.018.003-.029.007h-.037v.007c-.181.037-.185.011-.303.022l-.676.037-.004-.048.377-.051.137-.011.077-.056.004.048c.532-.044.72.089 3.179-.436.133-.011.122-.121.207-.35a.238.238 0 0 1-.129-.03c-.203.078-.31.041-.702.104-.033.003-.059-.026-.07-.085l-.003-.041.376.011c.07-.007.207-.018.41-.133 0 .033-.074.052-.029.048zm-18.184.292l-.173.015c-.008-.071.085-.336.277-.791l.114-.011c.004.107-.066.37-.218.787zm.211-.842l-.004-.048c-.004-.059.033-.1.115-.118l.003.048c.004.07-.033.11-.114.118zm2.308 1.784l.004.047-.288.026-.004-.048.288-.025zm-.347-.03c.003.059-.085.125-.277.192l-.355-.026-.114.011-.011-.107.757-.07zm2.334-10.742l-.174.014-.004-.059c-.003-.059.03-.099.104-.118l.062-.003.119.047c.003.071-.03.111-.107.119zm2.64-.517l.055-.004.008.107-.159.015c-.004-.059.026-.1.096-.118zm-.665.232l-.262-.029-.004-.048c.344-.03.458-.067.669-.126.003.041.04.056.107.048l.007.107-.103.011a.354.354 0 0 1-.211-.036.448.448 0 0 1-.203.073zm.329.957l-.004-.048.425-.041.004.048-.425.041zm.454-.37l-.004-.059.207-.018.004.059-.207.018zm.048-.723l-.055.003.048-.114.472-.044.004.059a2.805 2.805 0 0 0-.469.096zm.24 1.019l-.007-.107.207-.019c.07-.007.107.026.11.1l-.31.026zM39.76.687l-.266.074-.048.003a2.675 2.675 0 0 1-.48-.011c.343-.022.672-.048.794-.066zm-.284 1.182l.003.048-.365.033-.004-.048.366-.033zm.598.284c-.004-.044-.074-.074-.218-.089l-.366.104-.28.011c-.063-.045-.096-.074-.1-.096l.325.018.731-.118.373.015.004.059c-.185.018-.34.052-.469.096zm3.763-.971c.044.003.074.003.085.003a1.42 1.42 0 0 1 .439-.295c-.133.583-.34 1.015-.624 1.296l-.207-.125c.174-.44.277-.732.307-.879zm-.635 1.089l.051-.004c-.07.133-.133.203-.184.207l-.011-.14c.033 0 .081-.022.144-.063zm-.41.979c.099-.399.195-.624.284-.683l.004.047c-.052.37-.133.565-.24.58l.018.233c-.088.125-.129.221-.125.295l-.052.004-.03-.321c.059-.008.107-.059.141-.155zm-.159.531c.004.056-.033.185-.107.384l-.052.004-.011-.14c.07-.163.129-.244.17-.248zm-2.98 8.649l-.004-.041.096-.007.011.14c-.051.004-.088-.026-.103-.092zm4.258.111c-.004-.034-.019-.048-.052-.045l-.24.022-.004-.048h.022l.569-.048.004.048c-.166.008-.266.034-.299.071zm-.285-.119c.022.011.011.023 0 .03-.011-.004-.026-.015 0-.03zm.03-.664l-.318.026-.003-.048.288-.026.251-.063c.003.029.018.041.051.037.3-.052.27-.067.414-.078.048-.003.078.026.081.085l-.764.067zm1.111-.096c-.177-.019-.188-.033-.313-.022l-.004-.041.284-.026.004.041c-.03.003.077.011.029.048zm.023-.052l-.004-.041.155-.014.004.04-.155.015zm.343-.03l-.004-.04a.272.272 0 0 0 .111-.059c.078-.008.118.044.126.103l-.233-.004zm.439-.055l-.003-.048.188-.015.004.048-.189.015zm.263-.022c-.004-.055.018-.089.066-.096l.063.081c-.004-.026.007-.04.029-.044l.048.089-.206-.03zm-2.788 1.204l-.008-.093-.029.004.007.092.03-.003zm6.488-1.68c.029-.019.044-.037-.026-.048-.033.037.037.048-.037.051l.004.033c.007-.007.025-.018.04-.029l-.04.033v.004l-.078.1.155-.056h.019l-.008-.092-.029.004zm.269.21l-.029.004.007.092.218-.018c-.004-.059-.148-.078-.196-.078zm-.336-.162l.004-.004v-.004s-.004.004-.004.008z"/><path d="M35.292 4.239l.003.059.122-.011a.48.48 0 0 1 .037-.17l-.011-.107c-.052.004-.103.082-.151.229zm-1.167-2.806l-.011-.107-.174.014.011.108.174-.015zm-3.386 6.34c-.008-.099-.318-.487-.931-1.17-.011-.126.199-.314.631-.562l1.234-1.074c.277-.351.439-.92.487-1.71l-.014-.181c-.049-.547-.444-.986-1.193-1.322-.443-.299-1.241-.465-2.393-.495-.953.081-2.197.421-3.73 1.023-.421.303-.901.606-1.44.909l.007.092a.338.338 0 0 0 .144-.063c.063-.007.1.022.104.081l.092-.048.044-.003.004.04c.004.048-.329.31-1.001.779l.052.096-.044.004-.111-.04c.004.033-.044.055-.137.062l.004.041.107.133a.399.399 0 0 1-.155-.037c-.155.015-.307.096-.458.251l.063-.273c.225-.971.38-1.832.462-2.578l-.012-.048c-.155-.1-.306-.24-.446-.417a1.823 1.823 0 0 0 0-.196l-.012-.04-.044.011c-.487.731-1.425 1.979-2.817 3.744-1.06 1.256-1.607 1.954-1.64 2.094-.432.447-.639.716-.617.809-.114.073-.162.147-.144.229-.033.007-.055-.004-.062-.037a1.26 1.26 0 0 1-.824.576l-.384.088c-.052.011-.078.048-.074.111l.011.048.144-.033.011.041-.325.125-.576.133-.302.018c-.045.045.239-.003.129.023l-.377.088c-.229.052-.354.034-.377-.059l-.044.011a.23.23 0 0 1 .004.096l-.022-.092-.303.07c-.022-.14-.432-.65-1.226-1.529-.015-.17.266-.417.838-.738l1.617-1.422c.362-.465.577-1.211.647-2.238l-.022-.24c-.063-.724-.588-1.307-1.574-1.758-.583-.395-1.632-.605-3.146-.638-1.255.107-2.895.554-4.911 1.333-.554.402-1.186.801-1.895 1.196l.012.126a.51.51 0 0 0 .188-.074c.081-.008.125.029.133.103l.125-.07.063-.004.004.059c.004.06-.436.403-1.326 1.031l.07.111-.062.003-.137-.048c.004.037-.059.063-.188.074l.007.067.148.162a.529.529 0 0 1-.2-.041c-.288.026-.568.233-.845.624l.07.111c.24-.221.38-.332.421-.336l.015.181a.625.625 0 0 0-.189.074l.152.229c.291-.314.613-.583.963-.809.174.045.266.1.27.159l.133-.011c.953-.705 1.894-1.215 2.829-1.529l.011.126c-.174.258-.292.391-.355.399a.41.41 0 0 0 .092.232c.015.159-.409 1.23-1.27 3.209C2.973 11.846 1.333 15.251 0 17.452c.004.044.03.103.078.177.328-.077.535-.158.624-.236l.07-.007.011.125.122-.011.125-.07c.004.037.045.055.13.048l.011.125c.011.122-.059.307-.207.562-.133.151-.277.469-.429.952l.004.059.122-.011c.532-.594.934-1.178 1.211-1.746 1.551-.454 2.733-.901 3.553-1.341.823-.07 1.451-.288 1.879-.646l-.007-.066-.31.092-.07.007-.008-.066c.606-.092 1.023-.225 1.256-.41 1.178-.909 2.068-1.551 2.67-1.931 1.237-.909 2.042-1.795 2.407-2.655.067-.015.133-.03.207-.049.174-.007.27-.011.295-.018-.007-.033.008-.052.041-.059.277-.03.144.018.321-.022l.466-.107.077-.019-.037.022a.438.438 0 0 0 .17-.011l.033.137-2.116 3.364-.469.587-.229.768.045-.011.229-.096-.074.299.022.089.063.077c-.03.008-.041.026-.033.06l.011.048.096-.023c.14-.121.199-.232.177-.332.151.026.251.037.303.022l.011.048c-.093.022-.141.096-.148.222l.011.048.052-.011c.768-.839 2.651-3.708 4.162-5.654-.048-.21.738-.502 2.363-.879l.052-.011c.059.255-.067.872-.377 1.85-.199.591-.295.916-.281.968-.258.786-.38 1.211-.365 1.277l-.576 1.887a17.201 17.201 0 0 0-.857 3.054.392.392 0 0 1 .159.015l.081-.07c.007.033.03.044.063.037l-.033-.137.251-.007c.074-.019.136-.111.188-.281-.011-.255.041-.391.155-.421.155-.605.251-.908.284-.919.144-.602.252-.946.322-1.031.218-.782.376-1.185.48-1.211l.022.096-.159.41c-.277 1.23-.557 2.201-.842 2.914l.081.354.052-.011c.687-1.477 1.677-4.402 2.965-8.774.037-.384.222-.683.551-.893l-.074-.078-.011-.041c.147-.033.251-.092.31-.173-.007-.033-.137-.081-.388-.148l.643-2.755c.14-.125.221-.192.247-.192l.011.141a.339.339 0 0 0-.144.062l.122.174c.222-.24.462-.447.724-.62.133.036.199.081.207.125l.096-.007c.731-.536 1.447-.92 2.153-1.152l.007.092c-.129.196-.218.295-.266.299a.4.4 0 0 0 .059.177c.011.122-.306.935-.956 2.441-1.485 3.49-2.729 6.071-3.741 7.748a.353.353 0 0 0 .066.136c.248-.059.407-.122.469-.181l.045-.003.007.092.103-.007.093-.049c.003.026.037.037.099.034l.008.099c.007.089-.044.229-.159.421-.107.115-.218.355-.336.72l.004.049.096-.008c.402-.45.709-.894.919-1.329 1.178-.347 2.076-.683 2.696-1.016.631-.055 1.108-.218 1.433-.491l-.004-.048-.24.07-.052.004-.003-.048c.458-.067.779-.17.952-.307.894-.686 1.57-1.178 2.028-1.466 1.425-1.037 2.09-2.034 2.009-2.991zm-.244.063l.033.373c-.044.092-.092.14-.137.144l-.055-.635c.103.037.155.074.159.118zM2.533 4.83l-.062.004-.012-.115.255-.022.004.059a.494.494 0 0 0-.185.074zM1.289 17.278a.797.797 0 0 0-.395-.081l-.015-.181c-.008-.07.033-.118.122-.136.081-.008.129.051.136.17.215-.263.333-.396.355-.399l.137.055c-.045.369-.159.558-.34.572zm13.297-13.91c-.062.007-.188-.189-.369-.576l-.011-.115c.118-.011.24.181.369.576l.011.115zm-.177-1.378l-.052.122-1.805-.753c1.204.041 1.824.251 1.857.631zM6.784 8.538l-.255.022-.011-.115.255-.022.011.115zm-.207-3.933l.063-.004.014.181c-.059.004-.136.092-.232.262l-.011-.125c.114-.137.173-.24.166-.314zm-.536 1.263l.022.24-.062.004-.022-.241.062-.003zm-.28.45l.122-.011c-.012.2-.067.307-.167.314l-.062.004c.077-.133.114-.237.107-.307zm-.211.628l.07-.007.004.059-.114.192-.122.011-.004-.059c.122-.011.177-.074.166-.196zm-.207.565l-.036.303-.063.004-.026-.3.125-.007zm-2.071 5.89c-.081.414-.17.624-.262.632l-.004-.06c-.022-.203.066-.395.266-.572zm-.381.824l.004.059c.008.081-.029.129-.111.133l-.003-.06c-.008-.07.029-.114.11-.132zm-.11 1.709l.192-.018.007.066a.505.505 0 0 0-.188.074l-.122.011c-.007-.063.033-.111.111-.133zm5.465-1.687c-1.078.531-1.713.893-1.902 1.082-1.167.406-1.747.657-1.735.757-1.038.41-1.721.712-2.05.901-.077.007-.188-.022-.336-.089-.018-.21.078-.38.281-.517.181-.015.354.011.52.081.192-.099.528-.21 1.005-.328l-.011-.126-.384.033c.048-.066.417-.24 1.111-.52l.192-.019.004.059c-.329.03-.51.126-.55.299.007.078.051.111.133.104.247-.155.369-.248.365-.273.469-.089 1.765-.769 3.889-2.035l.011.114c.003.056-.177.211-.543.477zm-3.257 1.071a1.26 1.26 0 0 0 .798-.37c.088-.007.136.026.14.104-.152.015-.443.14-.868.384l-.063.003-.007-.121zm5.255-4.037l-1.629 1.293c-1.211.794-1.861 1.193-1.957 1.2-1.928 1.06-3.128 1.61-3.593 1.651l-.07.007c.059-.218.916-1.972 2.577-5.273.732-.063 1.884-.403 3.453-1.023l.384-.033c.794-.07 1.389.085 1.78.454l.022.24c-.291.846-.616 1.34-.967 1.484zM7.061 9.49l.262-.022.003.059-.262.023-.003-.06zm3.681-.624l.192-.018c.178.085.27.159.277.225l.004.059c-.17.015-.329-.074-.473-.266zm.521-2.965c-.17.203-.635.55-1.396 1.038-.251.022-1.185.384-2.803 1.093a.514.514 0 0 0-.258-.045l-.011-.114c-.019-.233.085-.524.314-.879.125-.665.262-1.045.413-1.137L8.87 2.825c-.015-.188.273-.332.864-.432l.192-.019.015.174c.58-.089.942-.14 1.082-.151 1.071-.093 1.628.125 1.673.646l.122-.011-.026-.307.133-.011c.314.174.483.384.506.632.014.17-.078.38-.274.631-.081.007-.129-.052-.136-.17l-.133.011-.03.37c-.543.812-.938 1.229-1.181 1.251-.222.307-.359.458-.414.462zm.827 2.123c-.111-.074-.199-.107-.266-.103l-.015-.181.122-.011.27.159c.011.085-.026.129-.111.136zm.857 1.016c.118.048.188.1.203.148l-.059.014.004.004c-.012 0-.026.004-.037.007l-.089.071-.022-.244zm.081.51l-.011-.049.155-.036.011.048-.155.037zm.373.417c.159-.026.236-.037.532-.104l.011.048-.561.13a.98.98 0 0 0 .018-.074zm.547.232c-.237.023-.185-.007-.562.078l-.011-.048.473-.151.225-.052.022.088c-.103.023-.029.023-.147.085zm.498-.118c-.055.015-.1-.011-.125-.074l.144-.033c.062-.015.103.011.118.074l-.137.033zm1.352-1.455l-.011-.048.232-.055.022.089-.243.014zm1.444 8.856a.39.39 0 0 0 .011-.148l.051-.011c.063-.015.1.007.115.066l.011.048-.188.045zm1.011-8.475l-.103-.019a2.91 2.91 0 0 1-.421.141l-.096.022c-.055.014-.1-.008-.122-.067l.676-.155.221-.103.074.085a.492.492 0 0 0-.229.096zm.521-.167l-.011-.048a.278.278 0 0 0 .125-.081l.481-.111.011.048a3.781 3.781 0 0 0-.606.192zm.074-.971a.409.409 0 0 0-.133.081c-.007-.033-.074-.033-.199-.003-.023-.093.332-.222 1.067-.392l.103-.022.022.089c-.517.151-.805.236-.86.247zm1.292-1.396c-.051.588-.258.92-.624 1.005l-.011-.048-.325.125-.144.034a.37.37 0 0 1-.199-.004l-.03-.129c-.011-.048.458-.698 1.411-1.946l.111.018c.04.17-.022.484-.189.945zm2.286-1.957l-.044.004-.008-.092.193-.019.003.048a.667.667 0 0 0-.144.059zm-.942 9.457a.6.6 0 0 0-.295-.066l-.011-.14c-.004-.048.026-.082.089-.1.062-.007.099.037.107.133.159-.203.247-.307.266-.307l.099.041c-.037.281-.122.428-.255.439zM31.58 3.412c-.047.004-.14-.144-.284-.443l-.007-.092c.092-.008.188.136.284.432l.007.103zm-.132-1.056l-.045.096-1.366-.572c.912.029 1.385.188 1.411.476zM25.654 7.33l-.192.019-.008-.093.192-.018.008.092zm-.159-2.987l.051-.004.012.14c-.048.004-.108.071-.178.2l-.007-.093c.085-.107.126-.188.122-.243zm-.403.96l.015.181-.052.004-.014-.181.051-.004zm-.218.343l.096-.007c-.011.155-.051.236-.121.244l-.052.003a.497.497 0 0 0 .077-.24zm-.155.473l.045-.004.003.048-.085.148-.096.007-.003-.048c.099-.007.144-.059.136-.151zm-.155.428l-.033.237-.044.003-.019-.232.096-.008zm-1.577 4.48c-.062.31-.129.469-.199.476l-.004-.041c-.011-.155.056-.303.203-.435zm-.291.624l.003.04c.008.067-.022.104-.088.107l-.004-.048c-.004-.048.026-.081.089-.099zm-.082 1.299l.148-.011.004.048a.443.443 0 0 0-.144.056l-.096.007c-.004-.051.026-.085.088-.1zm4.147-1.281c-.812.403-1.296.676-1.447.816-.886.31-1.326.502-1.318.58-.787.314-1.304.539-1.548.683a.568.568 0 0 1-.255-.07c-.014-.159.06-.288.215-.384a.83.83 0 0 1 .395.059c.147-.074.402-.155.764-.247l-.007-.093-.299.026c.037-.052.321-.185.849-.399l.148-.011.003.041c-.251.022-.391.096-.421.229.004.059.041.088.104.081.185-.122.273-.192.273-.214.355-.063 1.337-.58 2.951-1.547l.007.092c0 .037-.137.155-.414.358zm-2.474.813a1 1 0 0 0 .613-.277c.063-.004.1.022.104.081-.111.011-.329.103-.658.281l-.051.003-.008-.088zm3.996-3.069l-1.23.99c-.919.601-1.418.904-1.495.912-1.463.805-2.371 1.222-2.729 1.252l-.052.003c.044-.166.698-1.499 1.961-4.003.55-.048 1.422-.31 2.618-.783l.299-.026c.602-.051 1.053.067 1.348.351l.015.181c-.226.635-.469 1.008-.735 1.123zm-2.415-1.359l.192-.019.003.048-.192.019-.003-.048zm2.795-.476l.148-.011c.137.066.207.125.21.173l.004.041c-.129.011-.251-.056-.362-.203zm.388-2.249c-.129.155-.48.421-1.052.79-.192.018-.902.292-2.128.823a.479.479 0 0 0-.195-.025l-.008-.093c-.014-.177.063-.399.233-.668.096-.51.203-.794.314-.861l1.03-2.304c-.011-.137.207-.247.65-.332l.148-.011.011.14c.436-.07.709-.111.82-.122.812-.07 1.237.092 1.27.491l.096-.007-.018-.222.096-.007c.236.129.361.284.376.469.011.133-.055.295-.195.484-.063.007-.1-.037-.108-.133l-.096.007-.029.277c-.41.624-.709.945-.897.96-.167.225-.27.34-.318.344zm.432 1.536l-.011-.14.096-.008.207.126c.003.059-.026.092-.089.099-.089-.055-.155-.081-.203-.077zm-17.19 8.97l-.096.022-.081.07c.015.059.052.081.114.066.063-.014.089-.051.074-.11l-.011-.048zm-.365-.728l.011.048c.062-.015.088-.052.074-.111l-.012-.048c-.059.015-.084.052-.073.111zm2.614-4.911l.07-.045a.102.102 0 0 1-.037-.007c-.025.007-.037.026-.033.052zm-.015-1.274l.111-.026-.022-.096-.111.026.022.096zm26.097 3.729l-.251-.029-.044.096.003.048 1.496-.126-.007-.092-1.197.103zm1.366-.114l.008.092h.015l-.008-.092h-.015zm6.274-.82l.008.092.162.03-.007-.092-.163-.03zm-.229.019c-1.122.251-1.262.206-1.499.225l.008.092.103-.007.055-.004-.014-.011.121-.048c1.112-.122 1.241-.078 1.23-.203l-.004-.044zm-6.739-1.633l-.1-.033c-.081.218-.121.347-.118.384l.004.041c.078-.004.148-.137.214-.392zm-1.351-.727l-.004-.048-.052.004-.092.059.052.088c.07-.007.103-.04.096-.103zm2.935 3.035l-.007-.092-.03.004.008.092.029-.004zm6.093-1.373l.071-.008c.04-.003.059-.037.055-.096l-.041-.088c-.254.022-.373.033-.579.147l-.004-.048-.307.03c-.007-.092-.033-.14-.073-.137l-.159.015c-.185.015-.273.007-.366.078-.003-.034-.015-.048-.033-.048l-.177.014-.104.059c-.003-.033-.014-.048-.033-.048l-.063.056-.003-.048-.248-.019-.059.004.007.092.126.034.118-.008a.22.22 0 0 0 .137.03l.103-.052.004.041c-.58.144-.576.118-.975.184-.044-.029-.078-.044-.1-.04l-.007.007c-.044-.004-.07-.033-.074-.081l.207-.026c.015 0 .026.015.14.037.166-.081.174-.115.262-.122l-.007-.092c-.569.111-.34.037-1.052.099l-.034.004-.007-.092c.916-.111.609-.048.923-.137.004.033.015.048.033.048a.22.22 0 0 1 .126-.063l.063-.003c.321-.026.428.037 1.063-.141l.004.041.103-.052.096-.007c-.007-.092.133-.107.181-.111l-.007-.1c-1.115.226-1.407.163-1.717.252l-.004-.041c-.292.052-.303.029-.377.033a.198.198 0 0 0-.092.059c-.004-.033-.015-.048-.037-.048-.011 0-.015.004-.018.004l-.946.155c-.003-.026-.014-.041-.037-.037-.491.103-.358.122-1.015.181a.303.303 0 0 0-.122.052c-.004-.026-.018-.041-.052-.037l-.402.033-.27.066c-.003-.025-.018-.04-.051-.036-.152.04-.285.066-.392.073h-.007c-.067.008.033-.018-.019-.04l-.081.048c-.118.011-.055-.008-.462-.004-.712.089-.635.1-.712.104l-.266-.019c.004.026-.011.044-.041.044-.303-.04-.458-.088-.461-.144.04-.288.11-.435.21-.443l.052-.003-.044.096.051-.004c.096-.052.141-.1.137-.144l-.008-.1-.096.008-.007-.093a.33.33 0 0 1 .03-.184l.217-.351.008.092.103-.007-.007-.093-.059-.085c.077-.066.136-.103.184-.107l-.003-.048-.141.011-.011-.14c.281-.583.414-.923.407-1.019l.099.041c.063-.004.093-.041.089-.108l-.096.008-.004-.041a.363.363 0 0 1 .037-.196c.151-.158.222-.317.207-.483.029-.004.044.011.048.044.129-.074.229-.27.303-.594.229-.414.554-1.241.978-2.478.813-2.186.779-2.419.894-2.936l-.096.007a.334.334 0 0 1-.037.189.374.374 0 0 0-.155-.037l-.004-.041c-.015-.188.063-.413.24-.679l.045-.004.081.317.096-.007c-.004-.022.022-.148.074-.38-.004-.048-.041-.078-.115-.081l-.092.059a5.007 5.007 0 0 1 .007-.517l-.048.003c-.081-.081-.122-.147-.125-.203l-.528.052a.509.509 0 0 0-.06-.163c-.003-.048.115-.096.359-.144l.107.041.1-.059c.003.033.022.048.059.044l.099-.059c.004.033.022.048.059.044l.048-.003-.007-.107c-.074.007-.27.007-.58-.004l-.099.067-.004-.06c-2.478.203-3.885.318-4.221.351-.044.004-.218 0-.524-.007.003.04-.034.063-.107.07l-.108-.048-.361.092a2.348 2.348 0 0 1-.429-.018.366.366 0 0 1-.203.077c-.044.004.528-.029 1.06-.066a.485.485 0 0 1-.259.081.358.358 0 0 1-.21-.037c-.081.037-.343.096-.783.185l-.107-.041-1.728.266a.439.439 0 0 0-.233-.037 2.966 2.966 0 0 0-.461.1l-.835.347.063.103a.449.449 0 0 0 .17-.066l.295.026-.037.277c-.273.122-.432.303-.476.531-.41.181-.613.311-.613.388l.003.048.063-.003.111-.059.129.155.019.214c.007.066-.683 1.517-2.065 4.354-1.196 2.732-1.824 4.228-1.883 4.497-.41.115-.646.281-.716.503.007.07.129.118.365.136l.011.107-.107.177.019.215c.011.11.31.195.897.254-.004-.036.015-.059.056-.062.011.133-.026.391-.111.775l.062-.004c.244-.332.359-.561.348-.686l.051-.004c.059-.004.122.063.196.207-.074.029-.332.616-.775 1.765l.062.103.063-.003c.543-1.374.883-2.135 1.023-2.279.713-.063 1.946-.188 3.696-.377l.111-.066c.004.037.026.055.067.052l.114-.011.111-.067c.004.037.026.056.066.052l1.326-.115c.351-.029.517-.136.502-.317-.003-.048.203-.104.621-.163a.53.53 0 0 1 .181.034c-.004-.034.207-.067.628-.104.011-.221.081-.34.206-.351l-.011-.107a1.818 1.818 0 0 0-.406.093c-.277-.015-.454-.037-.528-.063a.48.48 0 0 1-.17.066l-.923.03-.111.059c-.004-.033-.026-.048-.066-.044l-.052.003-.118.059c-.004-.033-.1-.059-.292-.085l-.118.071-.229.018-.004-.059c1.189-.129 1.776-.292 1.762-.484.077-.007.118.03.125.107l.347-.088-.011-.107-2.847.077c.004.037-.015.059-.055.063l-.347-.03a.427.427 0 0 0-.222.078l-.129-.048a3.96 3.96 0 0 0-.802.129 5.078 5.078 0 0 0-.812.011l-.639.056-.295-.034c-.015-.188.351-1.115 1.104-2.777.218-.561.417-.912.609-1.045a.43.43 0 0 1 .181.045l.454-.155.233.036c.392-.033.846-.143 1.366-.336a.648.648 0 0 1 .296.026l.347-.081 1.034-.089a6.788 6.788 0 0 0 1.433-.291l-.011-.107c-.192.018-.292-.015-.299-.093-.012-.144-.152-.203-.421-.181l-.012-.107.285-.081.746-.063-.011-.107c-.03.004-.181 0-.462-.011l-.011-.114.288-.026c.078-.008.111-.045.103-.118-.387.011-.583-.008-.587-.059-2.703.132-4.058.158-4.065.073a.468.468 0 0 0-.17.074l-.07-.111c.716-1.521 1.137-2.289 1.259-2.3.003.059-.026.155-.089.284l.004.048.114-.011c.285-.679.525-1.03.724-1.045.849-.074-.118-.129 1.699-.414.074.034.125.049.162.045.713-.144 1.706-.296 2.98-.451L41.3 1.68l-.68.063-.007-.107a.36.36 0 0 0 .203-.078l.004.059a.392.392 0 0 0 .155-.073.485.485 0 0 1 .269.033c.237-.063.429-.1.569-.115l.425-.04c.103-.067.151-.126.148-.181l-.004-.048a1.376 1.376 0 0 1-.373-.022c-.004-.059.026-.1.096-.119l.79-.073.362-.093c.004.041.022.056.052.056a.413.413 0 0 0 .155-.074c.018.003.04.003.059.007a3.03 3.03 0 0 0-.159.432l-.103.008a.466.466 0 0 0-.059-.189l-.052.004c-.96 2.674-1.389 3.918-2.275 5.971-.162.525-.299.816-.417.879.004.059.041.089.103.081a1.29 1.29 0 0 1-.181.765c-.41 1.181-.683 1.828-.823 1.946l.092.557c.004.059-.026.093-.088.1l-.096.008c-.015-.156-.071-.229-.17-.218l-.052.003a2.173 2.173 0 0 0-.284.683l.096-.007c.129-.085.188-.185.177-.299l.192-.019.111.041c-.089.14-.13.251-.122.336l.052.089-.126.295.004.048a.6.6 0 0 1 .362.104.648.648 0 0 0 .291-.119c.111-.011.525-.014 1.237-.014l.359-.122c.435-.004.505.007.882-.026l.155-.015.081-.055.004.048c.395-.033.421-.008.731.029l.004.048-.218.019.008.092a.314.314 0 0 0 .173-.066c.055-.004.089.026.092.092a1.282 1.282 0 0 0-.299.066l-.096-.033c-.151.041-.118.052-.221.059l-.152-.029c.004.026-.011.044-.037.044.004.059.037.089.093.085l.155-.015.809-.07.306-.066c.004.025.015.04.041.037l.147-.056.277-.022c.215-.018.211-.033.676-.107-.004-.03.007-.041.03-.044l.003.04c.757-.129.805-.136.927-.177l.011.022c.189-.044.082-.033.133-.07.004.033.015.048.033.048l.133-.011-.007-.1-.27-.004-.003-.007c-.011.004-.019.004-.03.007h-.037v.008c-.181.037-.184.011-.303.022l-.675.037-.004-.048.377-.052.136-.011.078-.055.004.048c.531-.045.72.088 3.179-.436.133-.011.122-.122.207-.351a.225.225 0 0 1-.129-.029c-.204.077-.311.04-.702.103-.033.004-.059-.026-.07-.085l-.004-.04.377.011c.07-.008.207-.019.41-.133 0 .033-.078.051-.034.048zm-18.183.291l-.173.015c-.008-.07.085-.336.277-.79l.114-.011c.004.107-.066.369-.218.786zm.211-.842l-.004-.048c-.004-.059.033-.099.115-.118l.003.048c.004.07-.033.111-.114.118zm2.308 1.784l.003.048-.288.026-.003-.048.288-.026zm-.347-.029c.003.059-.085.125-.277.191l-.355-.025-.114.011-.011-.107.757-.07zm2.333-10.743l-.173.015-.004-.059c-.004-.059.03-.1.104-.118l.062-.004.119.048c.003.07-.03.111-.108.118zm2.641-.517l.055-.003.008.107-.159.014c-.004-.059.026-.099.096-.118zm-.665.233l-.262-.03-.004-.048c.344-.029.458-.066.669-.125.003.04.04.055.107.048l.007.107-.103.011a.36.36 0 0 1-.211-.037.442.442 0 0 1-.203.074zm.329.956l-.004-.048.425-.04.003.048-.424.04zm.454-.369l-.004-.059.207-.018.004.059-.207.018zm.048-.724l-.056.004.049-.115.472-.044.004.059a2.91 2.91 0 0 0-.469.096zm.24 1.019l-.007-.107.206-.018c.071-.007.107.026.111.1l-.31.025zM39.594.391l-.266.074-.048.004a2.771 2.771 0 0 1-.48-.011c.343-.022.672-.048.794-.067zm-.285 1.182l.004.048-.365.033-.004-.048.365-.033zm.599.284c-.004-.044-.074-.073-.218-.088l-.366.103-.28.011c-.063-.044-.096-.074-.1-.096l.325.019.731-.118.373.014.004.059c-.185.019-.34.052-.469.096zm3.763-.971c.044.004.073.004.085.004.129-.126.273-.225.439-.295-.133.583-.34 1.015-.624 1.296l-.207-.126c.174-.439.277-.731.307-.879zm-.636 1.09l.052-.004c-.07.133-.133.203-.184.207l-.012-.141c.034 0 .082-.022.144-.062zm-.409.978c.099-.399.195-.624.284-.683l.004.048c-.052.369-.133.565-.24.58l.018.232c-.089.126-.129.222-.126.296l-.051.004-.03-.322c.059-.007.107-.059.141-.155zm-.159.532c.003.055-.034.185-.107.384l-.052.004-.011-.141c.07-.162.129-.243.17-.247zm-2.98 8.648l-.004-.04.096-.008.011.141c-.052.003-.089-.026-.103-.093zm4.257.111c-.003-.033-.018-.048-.051-.044l-.24.022-.004-.048h.022l.569-.048.004.048c-.167.007-.266.033-.3.07zm-.284-.118c.022.011.011.022 0 .03-.011-.004-.026-.015 0-.03zm.03-.665l-.318.026-.004-.048.288-.026.252-.062c.003.029.018.04.051.036.299-.051.27-.066.414-.077.048-.004.077.026.081.085l-.764.066zm1.111-.096c-.177-.018-.188-.033-.314-.022l-.003-.04.284-.026.004.04c-.03.004.077.011.029.048zm.022-.051l-.003-.041.155-.015.003.041-.155.015zm.344-.03l-.004-.041a.26.26 0 0 0 .111-.059c.077-.007.118.045.125.104l-.232-.004zm.439-.055l-.003-.048.188-.015.004.048-.189.015zm.262-.022c-.003-.056.019-.089.067-.096l.063.081c-.004-.026.007-.041.029-.045l.048.089-.207-.029zm3.634-.429l.004-.004v-.003s-.004.003-.004.007zm.067-.048c.029-.018.044-.037-.026-.048-.034.037.037.048-.037.052l.003.033c.008-.007.026-.018.041-.029l-.041.033v.003l-.077.1.155-.055h.018l-.007-.093-.029.004zm.269.211l-.029.003.007.093.218-.019c-.004-.059-.148-.077-.196-.077z" fill="#F9DC3E"/></svg>