<svg xmlns="http://www.w3.org/2000/svg" style="isolation:isolate" viewBox="1.936 -0.001 50 30.617" width="50" height="30.617"><path d="M26.665 30.616a.995.995 0 0 1-.475-.124l-1.503-.893c-.226-.125-.113-.17-.045-.192a2.74 2.74 0 0 0 .678-.306c.034-.022.079-.011.113.012l1.153.689c.045.023.102.023.135 0l4.51-2.611c.045-.022.068-.067.068-.124v-5.21c0-.057-.023-.102-.068-.124l-4.51-2.6c-.045-.023-.101-.023-.135 0l-4.51 2.6c-.045.022-.067.079-.067.124v5.21c0 .045.022.102.067.124l1.232.712c.667.339 1.085-.056 1.085-.452v-5.142c0-.068.057-.136.136-.136h.576c.068 0 .136.057.136.136v5.142c0 .893-.486 1.413-1.334 1.413-.26 0-.463 0-1.039-.283l-1.187-.678a.953.953 0 0 1-.475-.825v-5.21c0-.339.181-.655.475-.825l4.509-2.611c.283-.158.667-.158.95 0l4.509 2.611c.294.17.475.486.475.825v5.21a.953.953 0 0 1-.475.825l-4.509 2.611a1.157 1.157 0 0 1-.475.102zm1.39-3.583c-1.978 0-2.385-.904-2.385-1.673 0-.067.057-.135.136-.135h.588c.068 0 .124.045.124.113.091.599.35.893 1.548.893.95 0 1.357-.215 1.357-.724 0-.294-.113-.508-1.594-.655-1.232-.125-2-.396-2-1.379 0-.915.768-1.458 2.057-1.458 1.446 0 2.158.497 2.249 1.582a.188.188 0 0 1-.034.102c-.023.023-.057.045-.091.045h-.587a.133.133 0 0 1-.125-.101c-.135-.622-.486-.826-1.412-.826-1.04 0-1.165.362-1.165.633 0 .328.147.43 1.549.611 1.39.181 2.046.44 2.046 1.412-.012.995-.825 1.56-2.261 1.56z" fill="#539E43"/><path d="M12.673 10.238a.575.575 0 0 0-.294-.497L7.587 6.983a.709.709 0 0 0-.26-.079h-.045a.54.54 0 0 0-.26.079L2.23 9.741a.575.575 0 0 0-.294.497l.012 7.414a.28.28 0 0 0 .147.249c.09.057.203.057.282 0l2.848-1.627a.576.576 0 0 0 .294-.498v-3.469c0-.204.113-.396.294-.498l1.209-.7a.545.545 0 0 1 .294-.08c.102 0 .203.023.283.08l1.209.7a.576.576 0 0 1 .294.498v3.469c0 .204.113.396.294.498l2.848 1.627c.09.057.203.057.294 0a.282.282 0 0 0 .147-.249l-.012-7.414zM35.707.033a.307.307 0 0 0-.283 0 .295.295 0 0 0-.147.248v7.347a.216.216 0 0 1-.102.18.215.215 0 0 1-.203 0l-1.198-.689a.58.58 0 0 0-.576 0l-4.792 2.769a.575.575 0 0 0-.294.497v5.527c0 .203.113.396.294.497l4.792 2.769a.58.58 0 0 0 .576 0l4.792-2.769a.574.574 0 0 0 .294-.497V2.135a.58.58 0 0 0-.294-.509L35.707.033zm-.441 14.059c0 .057-.023.102-.068.125l-1.639.949a.165.165 0 0 1-.147 0l-1.638-.949c-.046-.023-.068-.079-.068-.125v-1.898c0-.057.022-.102.068-.125l1.638-.949a.165.165 0 0 1 .147 0l1.639.949c.045.023.068.079.068.125v1.898zm16.388-1.944a.562.562 0 0 0 .282-.497v-1.345a.59.59 0 0 0-.282-.497l-4.758-2.758a.587.587 0 0 0-.577 0L41.527 9.82a.576.576 0 0 0-.294.498v5.526c0 .204.113.396.294.497l4.758 2.713a.56.56 0 0 0 .565 0l2.882-1.605a.28.28 0 0 0 .147-.248.28.28 0 0 0-.147-.249l-4.814-2.769a.294.294 0 0 1-.147-.249v-1.729a.28.28 0 0 1 .147-.249l1.503-.859a.278.278 0 0 1 .294 0l1.503.859c.09.057.147.147.147.249v1.356a.28.28 0 0 0 .147.249c.09.056.203.056.294 0l2.848-1.662z" fill="#333"/><path d="M46.534 11.889a.101.101 0 0 1 .113 0l.915.531a.117.117 0 0 1 .057.101v1.063a.117.117 0 0 1-.057.101l-.915.532a.105.105 0 0 1-.113 0l-.916-.532a.119.119 0 0 1-.056-.101v-1.063c0-.045.023-.079.056-.101l.916-.531z" fill="#539E43"/><path d="M20.686 7.074a.58.58 0 0 0-.576 0L15.352 9.82a.565.565 0 0 0-.283.497v5.504c0 .204.113.396.283.498l4.758 2.746a.58.58 0 0 0 .576 0l4.758-2.746a.565.565 0 0 0 .283-.498v-5.504a.589.589 0 0 0-.283-.497l-4.758-2.746z"/><path d="M20.099 7.074l-4.77 2.746a.586.586 0 0 0-.305.498v5.504c0 .135.057.26.147.361l5.357-9.177a.642.642 0 0 0-.429.068zm.463 12.048a.744.744 0 0 0 .136-.057l4.769-2.746a.575.575 0 0 0 .294-.497v-5.505a.576.576 0 0 0-.17-.395l-5.029 9.2z" fill="none"/><linearGradient id="a" x1="0%" y1="50%" x2="80.428%" y2="-9.425%"><stop offset="58.727%" stop-color="#41873f"/><stop offset="89.528%" stop-color="#54a044"/><stop offset="100%" stop-color="#6abd49"/><stop offset="100%" stop-color="#6cc04a"/></linearGradient><path d="M25.456 9.82l-4.781-2.746a.771.771 0 0 0-.147-.057l-5.357 9.178c.044.054.098.1.158.135l4.781 2.747a.553.553 0 0 0 .441.056l5.029-9.2a.607.607 0 0 0-.124-.113z" fill="url(#a)"/><g><path d="M25.761 15.822v-5.505a.586.586 0 0 0-.305-.497l-4.781-2.746a.51.51 0 0 0-.181-.068l5.233 8.94a.233.233 0 0 0 .034-.124zM15.329 9.82a.586.586 0 0 0-.305.498v5.504c0 .203.136.395.305.497l4.781 2.746a.53.53 0 0 0 .373.068l-5.12-9.324-.034.011z" fill="none"/><linearGradient id="b" x1="0%" y1="50%" y2="50%"><stop offset="0%" stop-color="#63b447"/><stop offset="100%" stop-color="#66b848"/><stop offset="100%" stop-color="#54a044"/></linearGradient><path d="M19.952 6.068l-.068.034h.09l-.022-.034z" fill-rule="evenodd" fill="url(#b)"/><linearGradient id="c" x1="0%" y1="50%" y2="50%"><stop offset="5.344%" stop-color="#6cc04a"/><stop offset="25.937%" stop-color="#66b848"/><stop offset="58.805%" stop-color="#54a044"/><stop offset="86.929%" stop-color="#41873f"/></linearGradient><path d="M25.467 16.319a.645.645 0 0 0 .283-.362l-5.245-8.951a.57.57 0 0 0-.406.068l-4.747 2.735 5.119 9.335a.802.802 0 0 0 .215-.067l4.781-2.758z" fill-rule="evenodd" fill="url(#c)"/><linearGradient id="d" x1="0%" y1="50%" y2="50%"><stop offset="0%" stop-color="#41873f"/></linearGradient><path d="M25.908 16.228l-.034-.056v.079l.034-.023z" fill-rule="evenodd" fill="url(#d)"/><linearGradient id="e" x1="0%" y1="50%" y2="50%"><stop offset="0%" stop-color="#62b347"/><stop offset="18.279%" stop-color="#54a044"/><stop offset="72.636%" stop-color="#41873f"/></linearGradient><path d="M25.467 16.319l-4.769 2.746a.683.683 0 0 1-.215.068l.09.17 5.29-3.063v-.068l-.136-.226a.526.526 0 0 1-.26.373z" fill-rule="evenodd" fill="url(#e)"/><linearGradient id="f" x1="0%" y1="50%" x2="44.016%" y2="-39.792%"><stop offset="0%" stop-color="#3fad2b"/><stop offset="34.565%" stop-color="#3fa92d"/><stop offset="100%" stop-color="#40a231"/><stop offset="100%" stop-color="#419339"/><stop offset="100%" stop-color="#418a3d"/></linearGradient><path d="M25.467 16.319l-4.769 2.746a.683.683 0 0 1-.215.068l.09.17 5.29-3.063v-.068l-.136-.226a.526.526 0 0 1-.26.373z" fill-rule="evenodd" fill="url(#f)"/></g></svg>